<svg width="76" height="75" viewBox="0 0 76 75" fill="none" xmlns="http://www.w3.org/2000/svg">
<g id="Layer 2">
<g id="01.facebook">
<path id="Vector" d="M37.9995 0.299805C30.6546 0.299805 23.4747 2.47781 17.3677 6.55839C11.2607 10.639 6.50082 16.4389 3.69006 23.2246C0.879311 30.0104 0.14389 37.4772 1.5768 44.6809C3.00971 51.8847 6.54659 58.5017 11.7402 63.6953C16.9338 68.8889 23.5508 72.4258 30.7545 73.8587C37.9583 75.2916 45.4251 74.5562 52.2109 71.7454C58.9966 68.9347 64.7965 64.1748 68.8771 58.0678C72.9577 51.9608 75.1357 44.7809 75.1357 37.436C75.1357 27.5869 71.2231 18.1411 64.2587 11.1768C57.2943 4.21236 47.8486 0.299805 37.9995 0.299805ZM47.4106 33.9179L46.7949 39.0925C46.7683 39.3326 46.6537 39.5544 46.4733 39.715C46.2928 39.8757 46.0592 39.9637 45.8176 39.9623H40.4426V55.3054C40.4439 55.4886 40.3727 55.6648 40.2446 55.7957C40.1164 55.9266 39.9417 56.0016 39.7585 56.0041H34.2858C34.1947 56.0029 34.1047 55.9836 34.021 55.9476C33.9373 55.9115 33.8616 55.8594 33.798 55.794C33.7345 55.7287 33.6845 55.6515 33.6508 55.5668C33.6171 55.4821 33.6005 55.3916 33.6017 55.3005L33.6311 39.9623H29.5607C29.3016 39.9623 29.053 39.8593 28.8697 39.676C28.6864 39.4928 28.5835 39.2442 28.5835 38.985V33.8152C28.5835 33.5561 28.6864 33.3075 28.8697 33.1242C29.053 32.9409 29.3016 32.838 29.5607 32.838H33.6017V27.8246C33.6017 22.0245 37.0564 18.8679 42.104 18.8679H46.2427C46.5019 18.8679 46.7505 18.9709 46.9338 19.1542C47.117 19.3374 47.22 19.586 47.22 19.8452V24.1989C47.22 24.4581 47.117 24.7067 46.9338 24.8899C46.7505 25.0732 46.5019 25.1762 46.2427 25.1762H43.7067C40.9606 25.2202 40.4426 26.5346 40.4426 28.4989V32.8233H46.4626C46.599 32.8264 46.7332 32.858 46.8565 32.9161C46.9799 32.9742 47.0898 33.0574 47.1791 33.1605C47.2684 33.2636 47.3351 33.3843 47.375 33.5147C47.4148 33.6451 47.427 33.7825 47.4106 33.9179Z" fill="#FFEEC8"/>
</g>
</g>
</svg>
