<svg width="76" height="75" viewBox="0 0 76 75" fill="none" xmlns="http://www.w3.org/2000/svg">
<path id="Vector" d="M38.0776 0.299805C17.571 0.299805 0.941406 16.9294 0.941406 37.436C0.941406 57.9427 17.571 74.5723 38.0776 74.5723C58.5843 74.5723 75.2139 57.9427 75.2139 37.436C75.2139 16.9294 58.5843 0.299805 38.0776 0.299805ZM27.2863 56.4393H18.2419V29.2292H27.2863V56.4393ZM22.7644 25.5136H22.7055C19.6705 25.5136 17.7076 23.4244 17.7076 20.8132C17.7076 18.1432 19.7305 16.1117 22.8244 16.1117C25.9184 16.1117 27.8223 18.1432 27.8813 20.8132C27.8813 23.4244 25.9184 25.5136 22.7644 25.5136ZM59.8983 56.4393H50.8551V41.8826C50.8551 38.2243 49.5456 35.7293 46.2732 35.7293C43.7748 35.7293 42.2867 37.4122 41.6328 39.0368C41.3937 39.6182 41.3353 40.4308 41.3353 41.2439V56.4393H32.2915C32.2915 56.4393 32.41 31.782 32.2915 29.2292H41.3353V33.0819C42.5372 31.2278 44.6877 28.5906 49.4861 28.5906C55.4365 28.5906 59.8983 32.4795 59.8983 40.8371V56.4393Z" fill="#FFEEC8"/>
</svg>
