<svg width="75" height="75" viewBox="0 0 75 75" fill="none" xmlns="http://www.w3.org/2000/svg">
<path d="M37.8433 0.299805C17.3367 0.299805 0.707031 16.9294 0.707031 37.436C0.707031 57.9426 17.3367 74.5723 37.8433 74.5723C58.3499 74.5723 74.9795 57.9426 74.9795 37.436C74.9795 16.9294 58.3499 0.299805 37.8433 0.299805ZM56.4738 28.7138V33.7421C54.1027 33.743 51.7989 33.2784 49.6262 32.3617C48.2291 31.7719 46.9274 31.0119 45.7369 30.0935L45.7726 45.5708C45.7576 49.0559 44.3788 52.3304 41.8833 54.7969C39.8524 56.8046 37.279 58.0813 34.4897 58.4946C33.8343 58.5916 33.1673 58.6414 32.4927 58.6414C29.5069 58.6414 26.6722 57.6741 24.3534 55.8895C23.917 55.5536 23.4997 55.1893 23.1024 54.7969C20.3978 52.1239 19.0032 48.501 19.238 44.6898C19.4172 41.7887 20.5787 39.0219 22.515 36.8533C25.0768 33.9837 28.6607 32.3909 32.4927 32.3909C33.1673 32.3909 33.8343 32.4415 34.4897 32.5386V34.3977V39.5695C33.8682 39.3645 33.2046 39.2518 32.5135 39.2518C29.0125 39.2518 26.1802 42.1081 26.2325 45.6117C26.2658 47.8533 27.4902 49.8128 29.2963 50.893C30.145 51.4007 31.1215 51.7152 32.1634 51.7724C32.9799 51.8172 33.7638 51.7035 34.4897 51.4638C36.991 50.6375 38.7955 48.2881 38.7955 45.5171L38.8037 35.1527V16.2307H45.7285C45.7351 16.9168 45.8048 17.5863 45.9342 18.235C46.4568 20.8608 47.9369 23.1389 49.9968 24.6919C51.793 26.0467 54.0296 26.8497 56.4537 26.8497C56.4553 26.8497 56.4753 26.8497 56.4736 26.8481V28.7138H56.4738Z" fill="#FFEEC8"/>
</svg>
