<svg width="75" height="75" viewBox="0 0 75 75" fill="none" xmlns="http://www.w3.org/2000/svg">
<g id="02.twitter">
<path id="Vector" d="M37.1579 0.299805C29.8131 0.299805 22.6331 2.47781 16.5261 6.55839C10.4191 10.639 5.65926 16.4389 2.84851 23.2246C0.0377579 30.0104 -0.697663 37.4772 0.735246 44.6809C2.16816 51.8847 5.70504 58.5017 10.8986 63.6953C16.0922 68.8889 22.7093 72.4258 29.913 73.8587C37.1167 75.2916 44.5836 74.5562 51.3693 71.7454C58.1551 68.9347 63.955 64.1748 68.0356 58.0678C72.1161 51.9608 74.2941 44.7809 74.2941 37.436C74.2941 27.5869 70.3816 18.1411 63.4172 11.1768C56.4528 4.21236 47.007 0.299805 37.1579 0.299805ZM55.6527 26.1974C54.7749 27.516 53.7024 28.6939 52.4717 29.6912C52.3166 29.8205 52.1922 29.9827 52.1077 30.1662C52.0231 30.3496 51.9806 30.5496 51.9831 30.7515V30.8737C51.9687 33.5218 51.4823 36.1461 50.5465 38.6234C49.5823 41.2235 48.1497 43.6249 46.3198 45.7086C43.8608 48.508 40.6974 50.5984 37.1579 51.7628C34.8322 52.5176 32.4006 52.8954 29.9554 52.8818C26.0763 52.8813 22.2664 51.8546 18.9123 49.906C18.7921 49.8376 18.6975 49.732 18.6428 49.605C18.5881 49.478 18.5764 49.3366 18.6093 49.2023C18.6432 49.0702 18.7202 48.9532 18.8283 48.87C18.9363 48.7867 19.0691 48.742 19.2055 48.743H20.1339C23.0815 48.7482 25.9636 47.8737 28.4114 46.2314C26.9532 45.9934 25.5888 45.358 24.4682 44.3951C23.3476 43.4322 22.514 42.1791 22.0591 40.7734C22.0358 40.703 22.0316 40.6277 22.0469 40.5552C22.0621 40.4826 22.0963 40.4154 22.1459 40.3603C22.1955 40.3052 22.2588 40.2642 22.3294 40.2415C22.4 40.2188 22.4753 40.2152 22.5477 40.231C22.9924 40.3147 23.4439 40.3572 23.8964 40.3581H24.0674C22.6577 39.7111 21.4657 38.6694 20.6358 37.359C19.8058 36.0486 19.3735 34.5258 19.3912 32.9748C19.3917 32.9022 19.4109 32.831 19.4471 32.7681C19.4833 32.7052 19.5352 32.6528 19.5977 32.6159C19.6602 32.579 19.7312 32.5589 19.8037 32.5575C19.8763 32.5562 19.9479 32.5737 20.0117 32.6083C20.585 32.9284 21.2001 33.1668 21.8392 33.3168C20.577 32.0673 19.7651 30.4342 19.5308 28.6736C19.2964 26.913 19.6529 25.1244 20.5443 23.5881C20.5785 23.5294 20.6265 23.4799 20.684 23.4438C20.7416 23.4076 20.807 23.386 20.8747 23.3807C20.9425 23.3754 21.0105 23.3867 21.0729 23.4134C21.1354 23.4402 21.1904 23.4817 21.2333 23.5344C22.9999 25.7172 25.1862 27.5238 27.6629 28.8473C30.1396 30.1708 32.8564 30.9845 35.6529 31.2401H35.692C35.7331 31.2389 35.7735 31.2294 35.8108 31.2121C35.8481 31.1948 35.8815 31.17 35.9089 31.1394C35.9363 31.1088 35.9572 31.0729 35.9704 31.0339C35.9835 30.995 35.9885 30.9537 35.9852 30.9128C35.8764 29.9321 35.9392 28.94 36.1709 27.9809C36.4861 26.6773 37.1333 25.4775 38.0495 24.4979C38.9656 23.5184 40.1196 22.7926 41.3993 22.391C42.2203 22.1345 43.0751 22.0027 43.9353 22.0001C45.8855 21.9978 47.7694 22.7086 49.2321 23.9986C49.4216 24.1681 49.6668 24.262 49.921 24.2624C50.0035 24.2607 50.0855 24.2492 50.1654 24.2282C51.5388 23.8805 52.8553 23.3375 54.0744 22.6157C54.1473 22.5708 54.2323 22.5494 54.3178 22.5547C54.4033 22.5599 54.4851 22.5914 54.5519 22.6449C54.6188 22.6984 54.6675 22.7713 54.6914 22.8535C54.7152 22.9358 54.7131 23.0234 54.6852 23.1044C54.2786 24.3835 53.554 25.5386 52.5792 26.4613C53.458 26.2542 54.3153 25.9646 55.1397 25.5964C55.2205 25.5661 55.3087 25.5613 55.3923 25.5829C55.476 25.6045 55.5509 25.6513 55.607 25.717C55.663 25.7827 55.6975 25.864 55.7057 25.95C55.7139 26.036 55.6954 26.1224 55.6527 26.1974Z" fill="#FFEEC8"/>
</g>
</svg>
