<svg width="76" height="75" viewBox="0 0 76 75" fill="none" xmlns="http://www.w3.org/2000/svg">
<path d="M33.4805 30.3232L45.066 37.4378L33.4805 44.5572V30.3232Z" fill="#FFEEC8"/>
<path d="M37.9214 0.299805C30.5765 0.299805 23.3966 2.47781 17.2896 6.55839C11.1826 10.639 6.42275 16.4389 3.612 23.2246C0.801247 30.0104 0.0658257 37.4772 1.49874 44.6809C2.93164 51.8847 6.46853 58.5017 11.6621 63.6953C16.8557 68.8889 23.4728 72.4258 30.6765 73.8587C37.8802 75.2916 45.3471 74.5562 52.1328 71.7454C58.9186 68.9347 64.7185 64.1748 68.799 58.0678C72.8796 51.9608 75.0576 44.7809 75.0576 37.436C75.0576 27.5869 71.1451 18.1411 64.1807 11.1768C57.2163 4.21236 47.7705 0.299805 37.9214 0.299805ZM55.6197 46.3731C54.877 48.6551 52.4192 50.0428 50.1568 50.3604C42.0228 51.2253 33.82 51.2253 25.686 50.3604C23.4236 50.0428 20.9658 48.6551 20.2231 46.3731C19.065 40.473 19.065 34.404 20.2231 28.5038C20.9658 26.1974 23.4236 24.8341 25.7055 24.5165C33.8395 23.6516 42.0423 23.6516 50.1763 24.5165C52.4387 24.8341 54.8966 26.217 55.6393 28.5038C56.7909 34.4052 56.7842 40.4742 55.6197 46.3731Z" fill="#FFEEC8"/>
</svg>
