<svg width="121" height="121" viewBox="0 0 121 121" fill="none" xmlns="http://www.w3.org/2000/svg">
<g id="Mask group">
<mask id="mask0_1_667" style="mask-type:alpha" maskUnits="userSpaceOnUse" x="0" y="0" width="121" height="121">
<rect id="Rectangle 84" x="0.951172" y="0.823242" width="120" height="120" fill="#FFEEC8"/>
</mask>
<g mask="url(#mask0_1_667)">
<g id="Group">
<path id="Vector" d="M108.156 62.1281L108.156 62.1271L108.183 62.0801C108.625 61.3004 108.625 60.3461 108.183 59.5666L108.183 59.5659L108.151 59.5107L108.151 59.5105C104.472 53.0806 102.515 45.7664 102.489 38.3476L102.489 38.3464L102.489 38.2912C102.481 37.3904 101.999 36.5605 101.22 36.1082C94.7837 32.3703 89.4057 26.9923 85.6678 20.5558C85.216 19.7777 84.3875 19.2957 83.4887 19.2867C83.4301 19.2805 83.3448 19.2778 83.248 19.2759C83.1742 19.2744 83.0853 19.2733 82.9831 19.2719C82.9297 19.2712 82.8728 19.2705 82.8125 19.2696C82.4593 19.2646 81.9799 19.2554 81.3897 19.2276C80.2094 19.1721 78.5849 19.0424 76.645 18.7235C72.765 18.0857 67.6254 16.6911 62.2572 13.62L62.2562 13.6194L62.2091 13.5928C62.2091 13.5928 62.2091 13.5928 62.2091 13.5928C61.4294 13.1514 60.4752 13.1514 59.6957 13.5928L59.695 13.5932L59.6398 13.6247L59.6396 13.6249C53.2097 17.3033 45.8955 19.2608 38.4767 19.2864L38.4755 19.2864L38.4203 19.2869L38.4202 19.2869C37.5195 19.2945 36.6896 19.7767 36.2373 20.556C32.4994 26.9923 27.1214 32.3701 20.6848 36.1083C19.9068 36.5601 19.4247 37.3886 19.4158 38.2873C19.4095 38.3459 19.4069 38.4312 19.405 38.528C19.4035 38.6018 19.4023 38.6908 19.401 38.7929C19.4003 38.8463 19.3996 38.9032 19.3987 38.9635C19.3936 39.3167 19.3844 39.7961 19.3567 40.3863C19.3012 41.5666 19.1715 43.1912 18.8526 45.131C18.2148 49.011 16.8201 54.1506 13.7491 59.5188L13.7485 59.5198L13.7219 59.5668C13.7219 59.5669 13.7219 59.5669 13.7218 59.567C13.2802 60.3466 13.2802 61.3009 13.7219 62.0804L13.7223 62.081L13.7538 62.1362L13.7539 62.1364C17.4324 68.5663 19.3899 75.8805 19.4155 83.2993L19.4155 83.3006L19.416 83.3557L19.666 83.3537L19.416 83.3558C19.4236 84.2565 19.9058 85.0865 20.6851 85.5387C27.1214 89.2767 32.4992 94.6546 36.2373 101.091C36.6916 101.873 37.5266 102.357 38.431 102.36L38.4881 102.36C45.8956 102.386 53.2101 104.344 59.6479 108.027L59.6489 108.027L59.696 108.054C59.696 108.054 59.696 108.054 59.6961 108.054C60.4746 108.495 61.4284 108.496 62.2094 108.054L62.2101 108.053L62.2653 108.022L62.2655 108.022C68.6954 104.343 76.0096 102.386 83.4284 102.36L83.4296 102.36L83.4848 102.36C84.3856 102.352 85.2156 101.87 85.6678 101.091C89.4057 94.6546 94.7837 89.2766 101.22 85.5387C101.998 85.0869 102.48 84.2586 102.489 83.3596C102.495 83.301 102.498 83.2158 102.5 83.1189C102.502 83.0066 102.504 82.8591 102.506 82.6835C102.511 82.3302 102.52 81.8508 102.548 81.2607C102.604 80.0803 102.733 78.4558 103.052 76.516C103.69 72.636 105.085 67.4963 108.156 62.1281ZM97.4164 81.8782C91.1755 85.7606 85.8892 91.0469 82.0066 97.2878C74.658 97.5277 67.4311 99.4623 60.9521 102.923C54.4683 99.4614 47.2428 97.5272 39.8976 97.2876C36.015 91.0465 30.7286 85.7601 24.4878 81.8778C24.2479 74.5292 22.3133 67.3023 18.8523 60.8232C22.3142 54.3395 24.2484 47.1139 24.488 39.7687C30.7291 35.8862 36.0155 30.5998 39.898 24.3589C47.2466 24.1191 54.4735 22.1845 60.9526 18.7234C67.4363 22.1853 74.6618 24.1195 82.0071 24.3591C85.8896 30.6003 91.176 35.8866 97.4167 39.7692C97.6565 47.1178 99.5911 54.3446 103.052 60.8237C99.5902 67.3075 97.656 74.533 97.4164 81.8782Z" fill="#FFEEC8" stroke="#49403E" stroke-width="0.5"/>
<path id="Vector_2" d="M60.952 27.1113C42.3631 27.1113 27.2402 42.2342 27.2402 60.8231C27.2402 79.4121 42.3631 94.535 60.952 94.535C79.541 94.535 94.6639 79.4121 94.6639 60.8231C94.6639 42.2342 79.541 27.1113 60.952 27.1113ZM60.952 89.437C45.1745 89.437 32.3382 76.6006 32.3382 60.8231C32.3382 45.0456 45.1745 32.2093 60.952 32.2093C76.7295 32.2093 89.5659 45.0456 89.5659 60.8231C89.5659 76.6006 76.7293 89.437 60.952 89.437Z" fill="#FFEEC8" stroke="#49403E" stroke-width="0.5"/>
<path id="Vector_3" d="M76.4419 70.0619L76.4418 70.0619C69.2347 77.4337 57.5922 77.4351 50.3834 70.0621C44.7933 64.344 44.7933 55.0376 50.3834 49.3197C54.6357 44.9704 61.495 44.969 65.7488 49.32C68.9805 52.6253 68.9805 58.0064 65.7488 61.3118C63.3879 63.7266 59.5893 63.7279 57.2275 61.312C56.2435 60.3051 54.6298 60.2871 53.6228 61.2712L53.6227 61.2712C52.6164 62.2552 52.5981 63.8691 53.5822 64.876L53.5822 64.876C55.6896 67.0315 58.4979 68.2201 61.4876 68.2203H61.4878C64.4776 68.2203 67.2861 67.0315 69.3939 64.8758L69.2151 64.701L69.3939 64.8757C74.5482 59.6036 74.5482 51.0281 69.3939 45.756L69.2151 45.9308L69.3939 45.756C63.1396 39.359 52.9927 39.3583 46.7382 45.756C39.2253 53.4405 39.2253 65.9412 46.7382 73.6261L46.9169 73.4513L46.7382 73.6261C55.9383 83.0358 70.8774 83.0458 80.0871 73.6261C81.0713 72.6195 81.0529 71.0058 80.0466 70.0214L80.0466 70.0214C79.0399 69.0369 77.426 69.0559 76.4419 70.0619Z" fill="#FFEEC8" stroke="#49403E" stroke-width="0.5"/>
<path id="Vector_4" d="M60.9514 9.12608C62.359 9.12608 63.5004 7.98467 63.5004 6.5771V4.2687C63.5004 2.86089 62.359 1.71973 60.9514 1.71973C59.5436 1.71973 58.4025 2.86091 58.4025 4.2687V6.5771C58.4025 7.98465 59.5436 9.12608 60.9514 9.12608Z" fill="#FFEEC8" stroke="#49403E" stroke-width="0.5"/>
<path id="Vector_5" d="M49.373 7.76529L49.373 7.76532C49.8066 9.38354 48.5855 10.9749 46.9096 10.9749C45.7843 10.9749 44.7544 10.2244 44.4489 9.08519L44.6885 9.02094L44.4489 9.08518L43.8512 6.85587L43.8512 6.85586C43.4867 5.4962 44.2934 4.09864 45.6532 3.73389L49.373 7.76529ZM49.373 7.76529L48.7753 5.53597L48.7753 5.53594M49.373 7.76529L48.7753 5.53594M48.7753 5.53594C48.4105 4.17645 47.0123 3.36909 45.6533 3.73387L48.7753 5.53594Z" fill="#FFEEC8" stroke="#49403E" stroke-width="0.5"/>
<path id="Vector_6" d="M31.621 15.1185L31.6211 15.1185C32.3274 16.3416 33.8877 16.7534 35.103 16.0514C36.3221 15.3474 36.7399 13.7885 36.0359 12.5695L34.8818 10.5706L34.8818 10.5706C34.178 9.3519 32.6191 8.93387 31.3999 9.63765L31.3999 9.63767C30.1808 10.3417 29.7629 11.9006 30.467 13.1196C30.467 13.1196 30.467 13.1196 30.467 13.1196L31.621 15.1185Z" fill="#FFEEC8" stroke="#49403E" stroke-width="0.5"/>
<path id="Vector_7" d="M20.7909 24.2678L20.791 24.2679C21.7868 25.2632 23.4 25.2629 24.3958 24.2679L24.3959 24.2678C25.3913 23.2724 25.3913 21.6584 24.3959 20.6628L24.3959 20.6628L22.7636 19.0305L22.7636 19.0305C21.768 18.0354 20.1545 18.0354 19.1587 19.0305L19.1586 19.0305C18.1633 20.0259 18.1633 21.6399 19.1586 22.6355L19.1586 22.6355L20.7909 24.2678Z" fill="#FFEEC8" stroke="#49403E" stroke-width="0.5"/>
<path id="Vector_8" d="M10.6987 34.754L10.6987 34.754L12.6977 35.9081L12.6977 35.9081C13.9145 36.6106 15.4742 36.197 16.1796 34.9752C16.8836 33.7562 16.4658 32.1973 15.2467 31.4933L13.2477 30.339L13.2477 30.339C12.028 29.6349 10.4698 30.053 9.76581 31.2719L9.7658 31.2719C9.06176 32.4911 9.47956 34.05 10.6987 34.754Z" fill="#FFEEC8" stroke="#49403E" stroke-width="0.5"/>
<path id="Vector_9" d="M7.89431 49.2452L7.89433 49.2452C9.26604 49.6129 10.6547 48.7911 11.0163 47.4431L11.0163 47.4431C11.3808 46.0834 10.574 44.6859 9.21423 44.3211L9.21421 44.3211L6.98494 43.7234C6.98492 43.7234 6.98491 43.7234 6.98489 43.7234C5.62439 43.3584 4.22761 44.166 3.8629 45.5255L3.86289 45.5255C3.49838 46.8851 4.30514 48.283 5.66501 48.6475L7.89431 49.2452Z" fill="#FFEEC8" stroke="#49403E" stroke-width="0.5"/>
<path id="Vector_10" d="M6.70503 63.3725C8.1126 63.3725 9.25401 62.2311 9.25401 60.8235C9.25401 59.4157 8.11258 58.2745 6.70503 58.2745H4.39663C2.98884 58.2745 1.84766 59.4157 1.84766 60.8235C1.84766 62.2311 2.98882 63.3725 4.39663 63.3725H6.70503Z" fill="#FFEEC8" stroke="#49403E" stroke-width="0.5"/>
<path id="Vector_11" d="M11.0163 74.203L11.0163 74.2029C10.6516 72.8434 9.25375 72.0366 7.89435 72.4009L7.89431 72.4009L5.665 72.9986L5.66497 72.9986C4.30518 73.3634 3.49838 74.7609 3.86289 76.1206L3.8629 76.1206C4.22632 77.4757 5.62094 78.2888 6.98496 77.9227L9.21419 77.325C10.5741 76.9605 11.3808 75.5626 11.0163 74.203Z" fill="#FFEEC8" stroke="#49403E" stroke-width="0.5"/>
<path id="Vector_12" d="M12.6977 85.7392L12.6977 85.7392L10.6987 86.8935L10.8237 87.11L10.6987 86.8935C9.47958 87.5975 9.06174 89.1565 9.76581 90.3755C10.4721 91.5987 12.0324 92.0103 13.2477 91.3084C13.2477 91.3084 13.2477 91.3084 13.2477 91.3083L15.2467 90.154C16.4658 89.4501 16.8836 87.8911 16.1796 86.6722C15.476 85.4534 13.9171 85.0355 12.6977 85.7392Z" fill="#FFEEC8" stroke="#49403E" stroke-width="0.5"/>
<path id="Vector_13" d="M20.791 97.3792L20.7909 97.3792L19.1586 99.0115C18.1633 100.007 18.1633 101.621 19.1586 102.616L19.1587 102.616C20.1545 103.612 21.7678 103.611 22.7636 102.616L22.7636 102.616L24.3959 100.984C25.3913 99.9886 25.3913 98.3746 24.3959 97.379L24.3958 97.3789C23.4 96.3841 21.7866 96.3841 20.791 97.3792Z" fill="#FFEEC8" stroke="#49403E" stroke-width="0.5"/>
<path id="Vector_14" d="M31.6213 106.528L31.6213 106.528C32.3253 105.309 33.8837 104.891 35.1031 105.595L31.6213 106.528ZM31.6213 106.528L30.467 108.527C30.467 108.527 30.467 108.527 30.467 108.527C29.7629 109.746 30.1808 111.305 31.3999 112.009L31.3999 112.009M31.6213 106.528L31.3999 112.009M31.3999 112.009C32.6167 112.711 34.1764 112.298 34.8818 111.076M31.3999 112.009L34.8818 111.076M34.8818 111.076L36.0359 109.077C36.7401 107.858 36.3226 106.299 35.1032 105.595L34.8818 111.076Z" fill="#FFEEC8" stroke="#49403E" stroke-width="0.5"/>
<path id="Vector_15" d="M43.8512 114.791L43.8512 114.791L44.4489 112.562C44.4489 112.562 44.4489 112.562 44.4489 112.562C44.8134 111.202 46.2105 110.395 47.5709 110.759L43.8512 114.791ZM43.8512 114.791C43.4867 116.151 44.2935 117.548 45.6533 117.913L45.6533 117.913M43.8512 114.791L45.6533 117.913M45.6533 117.913C47.0247 118.281 48.4139 117.459 48.7753 116.111C48.7753 116.111 48.7753 116.111 48.7753 116.111L49.373 113.881L49.373 113.881M45.6533 117.913L49.373 113.881M49.373 113.881C49.7375 112.522 48.9308 111.124 47.5709 110.759L49.373 113.881Z" fill="#FFEEC8" stroke="#49403E" stroke-width="0.5"/>
<path id="Vector_16" d="M60.9513 112.521C59.5435 112.521 58.4023 113.662 58.4023 115.069V117.378C58.4023 118.785 59.5435 119.927 60.9513 119.927C62.3589 119.927 63.5003 118.785 63.5003 117.378V115.069C63.5003 113.662 62.3589 112.521 60.9513 112.521Z" fill="#FFEEC8" stroke="#49403E" stroke-width="0.5"/>
<path id="Vector_17" d="M77.453 112.562L77.453 112.562L78.0507 114.791L78.0507 114.791C78.4153 116.151 77.6085 117.548 76.2487 117.913L77.453 112.562ZM77.453 112.562C77.0883 111.202 75.6905 110.395 74.331 110.759C72.9712 111.124 72.1644 112.522 72.5289 113.881L72.5289 113.881M77.453 112.562L72.5289 113.881M72.5289 113.881L73.1266 116.111L73.1266 116.111M72.5289 113.881L73.1266 116.111M73.1266 116.111C73.4901 117.466 74.8847 118.279 76.2487 117.913L73.1266 116.111Z" fill="#FFEEC8" stroke="#49403E" stroke-width="0.5"/>
<path id="Vector_18" d="M90.2822 106.528L90.2822 106.528L91.4365 108.527C91.4365 108.527 91.4365 108.527 91.4365 108.527C92.1405 109.746 91.7227 111.305 90.5036 112.009C89.2883 112.711 87.728 112.299 87.0217 111.076L90.2822 106.528ZM90.2822 106.528C89.5784 105.309 88.0195 104.891 86.8003 105.595C85.5811 106.299 85.1633 107.858 85.8674 109.077C85.8674 109.077 85.8674 109.077 85.8674 109.077L87.0217 111.076L90.2822 106.528Z" fill="#FFEEC8" stroke="#49403E" stroke-width="0.5"/>
<path id="Vector_19" d="M101.113 97.3792L101.113 97.3791C100.118 96.384 98.5041 96.3841 97.5083 97.3791L97.5083 97.3792C96.5129 98.3746 96.5129 99.9886 97.5082 100.984L97.5083 100.984L99.1405 102.616L99.1406 102.616C100.136 103.612 101.75 103.612 102.745 102.616L102.745 102.616C103.741 101.621 103.741 100.007 102.745 99.0117L101.113 97.3792Z" fill="#FFEEC8" stroke="#49403E" stroke-width="0.5"/>
<path id="Vector_20" d="M109.207 85.7394L109.207 85.7394C107.987 85.0353 106.429 85.4534 105.725 86.6723C105.021 87.8913 105.439 89.4502 106.658 90.1542L106.783 89.9377L106.658 90.1542L108.657 91.3085L108.657 91.3085C109.873 92.011 111.433 91.5974 112.139 90.3756C112.843 89.1566 112.425 87.5977 111.206 86.8937L111.081 87.1102L111.206 86.8937L109.207 85.7394Z" fill="#FFEEC8" stroke="#49403E" stroke-width="0.5"/>
<path id="Vector_21" d="M114.01 72.4009L114.01 72.4009C112.65 72.0366 111.253 72.8434 110.888 74.2029L110.888 74.203C110.524 75.5627 111.331 76.9602 112.69 77.325L112.69 77.325L114.92 77.9227L114.92 77.9227C116.291 78.2904 117.68 77.4686 118.042 76.1206L118.042 76.1206C118.406 74.761 117.599 73.3631 116.24 72.9986C116.24 72.9986 116.24 72.9986 116.24 72.9986L114.01 72.4009Z" fill="#FFEEC8" stroke="#49403E" stroke-width="0.5"/>
<path id="Vector_22" d="M117.506 58.2745H115.198C113.79 58.2745 112.649 59.4157 112.649 60.8235C112.649 62.2311 113.79 63.3725 115.198 63.3725H117.506C118.914 63.3725 120.055 62.2311 120.055 60.8235C120.055 59.4157 118.914 58.2745 117.506 58.2745Z" fill="#FFEEC8" stroke="#49403E" stroke-width="0.5"/>
<path id="Vector_23" d="M110.888 47.4431L110.888 47.4432C111.252 48.7981 112.646 49.6113 114.01 49.2452L116.24 48.6475L116.24 48.6475C117.599 48.2827 118.406 46.8852 118.042 45.5255L118.042 45.5255C117.677 44.166 116.279 43.3583 114.92 43.7234L112.69 44.3211C112.69 44.3211 112.69 44.3211 112.69 44.3211C111.331 44.6856 110.524 46.0835 110.888 47.4431Z" fill="#FFEEC8" stroke="#49403E" stroke-width="0.5"/>
<path id="Vector_24" d="M111.206 34.7537L111.206 34.7537C112.425 34.0497 112.843 32.4908 112.139 31.2718C111.435 30.0529 109.876 29.6351 108.657 30.3389L108.657 30.3389L106.658 31.4932L106.783 31.7097L106.658 31.4932C105.439 32.1972 105.021 33.7561 105.725 34.9751C106.431 36.1977 107.991 36.6097 109.207 35.9078C109.207 35.9078 109.207 35.9078 109.207 35.9078L111.206 34.7537Z" fill="#FFEEC8" stroke="#49403E" stroke-width="0.5"/>
<path id="Vector_25" d="M101.113 24.2679L101.113 24.2678L102.745 22.6355C103.741 21.6401 103.741 20.0262 102.745 19.0306L102.745 19.0305C101.75 18.0354 100.136 18.0354 99.1406 19.0305L99.1405 19.0305L97.5083 20.6628C96.5129 21.6582 96.5129 23.2722 97.5082 24.2678L97.5083 24.2679C98.5041 25.2632 100.117 25.2629 101.113 24.2679Z" fill="#FFEEC8" stroke="#49403E" stroke-width="0.5"/>
<path id="Vector_26" d="M90.5035 9.63781L90.5035 9.63782C91.7226 10.3418 92.1404 11.9007 91.4364 13.1197L90.5035 9.63781ZM90.5035 9.63781C89.284 8.93377 87.7256 9.35185 87.0216 10.5707L87.0216 10.5707L85.8673 12.5697L85.8672 12.5697C85.1635 13.7888 85.581 15.3478 86.8002 16.0516M90.5035 9.63781L91.4364 13.1198L90.2821 15.1187C90.2821 15.1187 90.2821 15.1187 90.2821 15.1187C89.5767 16.3405 88.0169 16.754 86.8002 16.0516M86.8002 16.0516L86.9252 15.8351M86.8002 16.0516L86.9252 15.8351M86.9252 15.8351C88.0227 16.4687 89.4295 16.0956 90.0656 14.9937L86.0838 12.6947C85.449 13.7943 85.8256 15.2003 86.9252 15.8351Z" fill="#FFEEC8" stroke="#49403E" stroke-width="0.5"/>
<path id="Vector_27" d="M78.0514 6.85587L78.0514 6.85586C78.4159 5.49619 77.6091 4.09861 76.2493 3.73387L76.2493 3.73387C74.8886 3.36911 73.4918 4.17643 73.1273 5.53597C73.1273 5.53597 73.1273 5.53598 73.1273 5.53598L72.5296 7.76529L72.5296 7.76532C72.0957 9.38435 73.3179 10.9749 74.993 10.9749C76.1183 10.9749 77.1485 10.2244 77.4537 9.08513L78.0514 6.85587Z" fill="#FFEEC8" stroke="#49403E" stroke-width="0.5"/>
</g>
</g>
</g>
</svg>
