<svg width="121" height="121" viewBox="0 0 121 121" fill="none" xmlns="http://www.w3.org/2000/svg">
<g id="Mask group">
<mask id="mask0_1_638" style="mask-type:alpha" maskUnits="userSpaceOnUse" x="0" y="0" width="121" height="121">
<rect id="Rectangle 83" x="0.0488281" y="0.823242" width="120" height="120" fill="#FFEEC8"/>
</mask>
<g mask="url(#mask0_1_638)">
<path id="Vector" d="M11.0675 62.1716C11.09 62.1941 11.1126 62.2167 11.1351 62.2392L23.537 73.9646C20.9664 78.0459 21.4399 83.5253 25.0026 87.088C27.032 89.1173 29.6702 90.132 32.3084 90.1771C32.3986 92.883 33.481 95.5663 35.5555 97.6408C37.6074 99.6927 40.3358 100.843 43.2446 100.888C43.2897 103.684 44.372 106.435 46.4916 108.577C50.618 112.884 58.0591 112.884 62.2081 108.577L68.9502 101.835L70.4609 103.346C74.8354 107.72 81.9834 107.72 86.3578 103.346L86.448 103.255C88.5676 101.136 89.6499 98.3849 89.7401 95.5888C92.6489 95.6114 95.5352 94.5065 97.7449 92.2967L97.8351 92.2065C99.9322 90.1095 101.105 87.336 101.127 84.3596C103.968 84.337 106.787 83.2321 108.952 81.0674L109.042 80.9772C113.416 76.6028 113.416 69.4548 109.042 65.0804L107.892 63.9304L108.478 63.3441C136.596 32.7905 94.7911 -8.96976 64.26 19.126L58.4875 24.8985L53.3239 19.8701C41.6436 8.25749 22.7027 8.25749 11.0675 19.8926C-0.590208 31.5504 -0.590208 50.5139 11.0675 62.1716ZM104.149 76.2871C102.39 78.0459 99.5488 78.0459 97.8126 76.2871L91.6117 70.0862C89.8754 68.4176 89.8754 65.4186 91.6117 63.75L91.7019 63.6598C93.3705 61.9235 96.3695 61.9235 98.0381 63.6598L104.239 69.8607C105.998 71.6195 105.998 74.4607 104.239 76.1969L104.149 76.2871ZM86.5833 87.5164L76.4364 77.3694C74.7001 75.7008 74.7001 72.7018 76.4364 71.0332L76.5266 70.943C78.2854 69.1842 81.1265 69.1842 82.8628 70.943L86.7862 74.8665L92.9872 81.0674C94.7234 82.736 94.7234 85.735 92.9872 87.4036L92.897 87.4938C91.1833 89.2526 88.3421 89.2526 86.5833 87.5164ZM75.1962 98.5653L71.1825 94.5516C69.4462 92.883 69.4462 89.884 71.1825 88.2154L71.2727 88.1252C73.0315 86.3664 75.8726 86.3664 77.6089 88.1252L81.6226 92.1389C83.3814 93.8977 83.3814 96.7388 81.6226 98.4751L81.5324 98.5653C79.7961 100.302 76.955 100.302 75.1962 98.5653ZM29.783 76.9185L52.9856 53.7158C53.0984 53.603 53.3013 53.603 53.4141 53.7158L57.1572 57.4589C61.6669 62.1716 69.807 62.1716 74.3168 57.4589C79.0746 52.904 79.0069 44.6512 74.1815 40.164L63.3355 29.6337L69.0404 23.9289C78.601 14.3682 94.1371 14.3682 103.698 23.9289C113.258 33.4896 113.258 49.0257 103.698 58.5863L103.112 59.1726L102.818 58.8795C98.6243 54.5275 91.0931 54.5275 86.9215 58.8795L86.8313 58.9697C85.4784 60.3226 84.5314 61.9461 84.0127 63.7049C79.9314 62.0363 75.0834 62.848 71.7913 66.1402L71.7011 66.2304C67.8227 69.9509 67.3267 76.4449 70.506 80.7292C69.0629 81.2704 67.6874 82.1272 66.5149 83.2998L66.4247 83.39C62.9296 86.7723 62.1179 92.4771 64.4855 96.7163L57.4278 103.774C55.8042 105.465 52.8955 105.465 51.2719 103.774C49.5582 102.06 49.5808 99.2868 51.2945 97.5957L57.563 91.3271C58.8934 89.9967 58.8934 87.8772 57.563 86.5468C56.2327 85.2164 54.1131 85.2164 52.7827 86.5468L46.4916 92.8379C44.8681 94.529 41.9593 94.529 40.3358 92.8379C38.6446 91.1467 38.6446 88.3958 40.3358 86.6821L46.672 80.3459C48.0024 79.0155 48.0024 76.8959 46.672 75.5655C45.3416 74.2352 43.222 74.2352 41.8917 75.5655C41.8917 75.5655 35.2172 82.24 35.1947 82.2625C33.7065 83.7507 31.2937 83.7507 29.8055 82.2625C28.2948 80.8194 28.2948 78.4067 29.783 76.9185ZM15.8478 24.6955C24.8673 15.676 39.5691 15.676 48.5886 24.7406L69.4688 45.0345C70.506 46.0492 71.0923 47.4021 71.1149 48.8453C71.16 53.6481 65.3424 56.0609 61.9375 52.6785L58.1944 48.9355C55.5562 46.1845 50.8435 46.1845 48.2053 48.9355L28.1369 69.0038L15.8253 57.3461C6.82833 48.3492 6.82833 33.6925 15.8478 24.6955Z" fill="#FFEEC8"/>
</g>
</g>
</svg>
