<svg width="121" height="121" viewBox="0 0 121 121" fill="none" xmlns="http://www.w3.org/2000/svg">
<g id="Mask group">
<mask id="mask0_1_697" style="mask-type:alpha" maskUnits="userSpaceOnUse" x="0" y="0" width="121" height="121">
<rect id="Rectangle 82" x="0.650391" y="0.823242" width="120" height="120" fill="#FFEEC8"/>
</mask>
<g mask="url(#mask0_1_697)">
<g id="g2701">
<g id="g2707">
<path id="path2709" d="M24.982 60.6613C13.3951 59.2832 4.27539 63.0311 4.27539 63.0311C4.27539 63.0311 6.9142 82.6714 24.6183 92.8931C42.3225 103.115 60.651 95.5797 60.651 95.5797" stroke="#FFEEC8" stroke-width="6" stroke-miterlimit="10"/>
</g>
<g id="g2711">
<path id="path2713" d="M60.6504 95.5797C60.6504 95.5797 78.979 103.115 96.6831 92.8931C114.387 82.6716 117.026 63.0313 117.026 63.0313C117.026 63.0313 107.906 59.2831 96.3194 60.6613" stroke="#FFEEC8" stroke-width="6" stroke-miterlimit="10"/>
</g>
<g id="g2715">
<path id="path2717" d="M45.6277 45.2569C36.3995 38.8313 27.1718 37.5899 27.1718 37.5899C27.1718 37.5899 19.421 56.4429 29.9351 74.6538C40.4492 92.8647 60.6518 95.5791 60.6518 95.5791" stroke="#FFEEC8" stroke-width="6" stroke-miterlimit="10"/>
</g>
<g id="g2719">
<path id="path2721" d="M60.6504 95.5791C60.6504 95.5791 80.8528 92.8647 91.3669 74.6538C101.881 56.4429 94.1304 37.5899 94.1304 37.5899C94.1304 37.5899 84.9027 38.8313 75.6745 45.2569" stroke="#FFEEC8" stroke-width="6" stroke-miterlimit="10"/>
</g>
<g id="g2723">
<path id="path2725" d="M60.6486 95.5801C61.3955 94.9926 78.0472 81.6467 78.0472 59.4864C78.0472 36.8168 60.6486 23.3925 60.6486 23.3925C60.6486 23.3925 43.25 36.8168 43.25 59.4864C43.25 82.156 60.6486 95.5801 60.6486 95.5801Z" stroke="#FFEEC8" stroke-width="6" stroke-miterlimit="10"/>
</g>
</g>
</g>
</g>
</svg>
